# xmcd CD database file
#
# Track frame offsets:
#	150
#	14055
#	38488
#	64593
#	80629
#	98165
#	116477
#	146751
#	163058
#	184902
#	204578
#	225763
#	236749
#	256179
#	273297
#	302227
#
# Disc length: 4278 seconds
#
# Revision: 0
# Processed by: cddbd v1.5.1PL0 Copyright (c) Steve Scherf et al.
# Submitted via: CDex 1.51
#
DISCID=d610b410
DTITLE=Blå mandag Jazz Band - Blå Mandag Jazz Band and Lisa
DYEAR=2004
DGENRE=Jazz
TTITLE0=Bye, Bye Blackbird 
TTITLE1=After You've Gone
TTITLE2=The Same Old Love
TTITLE3=Weary Blues
TTITLE4=Just a Gigolo
TTITLE5=Cake Walking Babies from Home
TTITLE6=Mamas Gone Goodbye
TTITLE7=Alice Blue Gown
TTITLE8=Mood Indigo
TTITLE9=How Can You Leave me
TTITLE10=Do You Know What It Means To Miss New Orleans
TTITLE11=Sommersolen Skinner
TTITLE12=Float me Down The River
TTITLE13=Stevedore Stomp
TTITLE14=You Can't tell The Difference After dark
TTITLE15=Mister Sandman
EXTD=YEAR: 2004
EXTT0=
EXTT1=
EXTT2=
EXTT3=
EXTT4=
EXTT5=
EXTT6=
EXTT7=
EXTT8=
EXTT9=
EXTT10=
EXTT11=
EXTT12=
EXTT13=
EXTT14=
EXTT15=
PLAYORDER=
